<?xml version="1.0" encoding="UTF-8"?>
<!DOCTYPE svg PUBLIC "-//W3C//DTD SVG 1.1//EN" "http://www.w3.org/Graphics/SVG/1.1/DTD/svg11.dtd">
<!-- Creator: CorelDRAW 2021 (64-Bit) -->
<svg xmlns="http://www.w3.org/2000/svg" xml:space="preserve" width="297mm" height="80mm" version="1.1" style="shape-rendering:geometricPrecision; text-rendering:geometricPrecision; image-rendering:optimizeQuality; fill-rule:evenodd; clip-rule:evenodd"
viewBox="0 0 29700 8000"
 xmlns:xlink="http://www.w3.org/1999/xlink"
 xmlns:xodm="http://www.corel.com/coreldraw/odm/2003">
 <defs>
  <style type="text/css">
   <![CDATA[
    .str0 {stroke:#FEFEFE;stroke-width:358.09;stroke-linecap:round;stroke-linejoin:round;stroke-miterlimit:10}
    .fil0 {fill:none;fill-rule:nonzero}
    .fil3 {fill:#FEFEFE;fill-rule:nonzero}
    .fil1 {fill:#FEFEFE;fill-rule:nonzero}
    .fil2 {fill:#EE741D;fill-rule:nonzero}
    .fil4 {fill:#00A0E3;fill-rule:nonzero}
   ]]>
  </style>
 </defs>
 <g id="Layer_x0020_1">
  <metadata id="CorelCorpID_0Corel-Layer"/>
  <g id="_3083693798448">
   <g>
    <g>
     <polygon class="fil0 str0" points="5059.13,2269.26 5059.13,4738.34 6596.42,4738.34 6596.42,5259.61 4495.33,5259.61 4495.33,2269.26 "/>
     <polygon id="_1" class="fil1" points="5059.13,2269.26 5059.13,4738.34 6596.42,4738.34 6596.42,5259.61 4495.33,5259.61 4495.33,2269.26 "/>
    </g>
    <g>
     <polygon class="fil0 str0" points="5059.13,2269.26 5059.13,4738.34 6596.42,4738.34 6596.42,5259.61 4495.33,5259.61 4495.33,2269.26 "/>
     <polygon id="_1_0" class="fil1" points="5059.13,2269.26 5059.13,4738.34 6596.42,4738.34 6596.42,5259.61 4495.33,5259.61 4495.33,2269.26 "/>
    </g>
    <g>
     <path class="fil0 str0" d="M8543.22 3960.88c-34.16,-273.41 -247.71,-410.04 -546.61,-410.04 -281.87,0 -512.46,136.63 -589.37,410.04l1135.98 0zm-1144.57 431.57c34.16,260.62 260.56,448.54 627.92,448.54 192.03,0 444,-72.65 563.6,-196.51l333.2 328.94c-222.21,230.66 -585.17,341.73 -905.38,341.73 -726.07,0 -1157.36,-448.6 -1157.36,-1123.6 0,-640.71 435.63,-1102.1 1118.79,-1102.1 704.77,0 1144.57,435.68 1063.55,1303l-1644.32 0z"/>
     <path id="_1_1" class="fil1" d="M8543.22 3960.88c-34.16,-273.41 -247.71,-410.04 -546.61,-410.04 -281.87,0 -512.46,136.63 -589.37,410.04l1135.98 0zm-1144.57 431.57c34.16,260.62 260.56,448.54 627.92,448.54 192.03,0 444,-72.65 563.6,-196.51l333.2 328.94c-222.21,230.66 -585.17,341.73 -905.38,341.73 -726.07,0 -1157.36,-448.6 -1157.36,-1123.6 0,-640.71 435.63,-1102.1 1118.79,-1102.1 704.77,0 1144.57,435.68 1063.55,1303l-1644.32 0z"/>
    </g>
    <g>
     <path class="fil0 str0" d="M8543.22 3960.88c-34.16,-273.41 -247.71,-410.04 -546.61,-410.04 -281.87,0 -512.46,136.63 -589.37,410.04l1135.98 0zm-1144.57 431.57c34.16,260.62 260.56,448.54 627.92,448.54 192.03,0 444,-72.65 563.6,-196.51l333.2 328.94c-222.21,230.66 -585.17,341.73 -905.38,341.73 -726.07,0 -1157.36,-448.6 -1157.36,-1123.6 0,-640.71 435.63,-1102.1 1118.79,-1102.1 704.77,0 1144.57,435.68 1063.55,1303l-1644.32 0z"/>
     <path id="_1_2" class="fil1" d="M8543.22 3960.88c-34.16,-273.41 -247.71,-410.04 -546.61,-410.04 -281.87,0 -512.46,136.63 -589.37,410.04l1135.98 0zm-1144.57 431.57c34.16,260.62 260.56,448.54 627.92,448.54 192.03,0 444,-72.65 563.6,-196.51l333.2 328.94c-222.21,230.66 -585.17,341.73 -905.38,341.73 -726.07,0 -1157.36,-448.6 -1157.36,-1123.6 0,-640.71 435.63,-1102.1 1118.79,-1102.1 704.77,0 1144.57,435.68 1063.55,1303l-1644.32 0z"/>
    </g>
    <g>
     <path class="fil0 str0" d="M9849.43 4204.5c0,401.45 277.54,640.69 623.44,640.69 819.95,0 819.95,-1277.36 0,-1277.36 -345.9,0 -623.44,235.06 -623.44,636.67zm1263.94 -1051.04l499.74 0 0 2106.11 -491.15 0 -25.56 -307.5c-119.58,247.84 -448.4,367.3 -683.38,371.63 -623.45,4.26 -1084.64,-380.22 -1084.64,-1119.2 0,-726.35 482.5,-1106.58 1097.43,-1102.24 281.93,0 551.01,132.43 670.59,341.73l16.97 -290.53z"/>
     <path id="_1_3" class="fil1" d="M9849.43 4204.5c0,401.45 277.54,640.69 623.44,640.69 819.95,0 819.95,-1277.36 0,-1277.36 -345.9,0 -623.44,235.06 -623.44,636.67zm1263.94 -1051.04l499.74 0 0 2106.11 -491.15 0 -25.56 -307.5c-119.58,247.84 -448.4,367.3 -683.38,371.63 -623.45,4.26 -1084.64,-380.22 -1084.64,-1119.2 0,-726.35 482.5,-1106.58 1097.43,-1102.24 281.93,0 551.01,132.43 670.59,341.73l16.97 -290.53z"/>
    </g>
    <g>
     <path class="fil0 str0" d="M9849.43 4204.5c0,401.45 277.54,640.69 623.44,640.69 819.95,0 819.95,-1277.36 0,-1277.36 -345.9,0 -623.44,235.06 -623.44,636.67zm1263.94 -1051.04l499.74 0 0 2106.11 -491.15 0 -25.56 -307.5c-119.58,247.84 -448.4,367.3 -683.38,371.63 -623.45,4.26 -1084.64,-380.22 -1084.64,-1119.2 0,-726.35 482.5,-1106.58 1097.43,-1102.24 281.93,0 551.01,132.43 670.59,341.73l16.97 -290.53z"/>
     <path id="_1_4" class="fil1" d="M9849.43 4204.5c0,401.45 277.54,640.69 623.44,640.69 819.95,0 819.95,-1277.36 0,-1277.36 -345.9,0 -623.44,235.06 -623.44,636.67zm1263.94 -1051.04l499.74 0 0 2106.11 -491.15 0 -25.56 -307.5c-119.58,247.84 -448.4,367.3 -683.38,371.63 -623.45,4.26 -1084.64,-380.22 -1084.64,-1119.2 0,-726.35 482.5,-1106.58 1097.43,-1102.24 281.93,0 551.01,132.43 670.59,341.73l16.97 -290.53z"/>
    </g>
    <g>
     <path class="fil0 str0" d="M12534.96 3153.43l38.35 243.65c162.33,-260.62 380.07,-299.18 593.68,-299.18 217.68,0 427.1,85.5 542.28,200.91l-234.78 452.79c-106.81,-89.7 -205.02,-136.65 -375.95,-136.65 -273.28,0 -525.23,145.25 -525.23,533.9l0 1110.76 -520.91 0 0 -2106.18 482.56 0z"/>
     <path id="_1_5" class="fil1" d="M12534.96 3153.43l38.35 243.65c162.33,-260.62 380.07,-299.18 593.68,-299.18 217.68,0 427.1,85.5 542.28,200.91l-234.78 452.79c-106.81,-89.7 -205.02,-136.65 -375.95,-136.65 -273.28,0 -525.23,145.25 -525.23,533.9l0 1110.76 -520.91 0 0 -2106.18 482.56 0z"/>
    </g>
    <g>
     <path class="fil0 str0" d="M12534.96 3153.43l38.35 243.65c162.33,-260.62 380.07,-299.18 593.68,-299.18 217.68,0 427.1,85.5 542.28,200.91l-234.78 452.79c-106.81,-89.7 -205.02,-136.65 -375.95,-136.65 -273.28,0 -525.23,145.25 -525.23,533.9l0 1110.76 -520.91 0 0 -2106.18 482.56 0z"/>
     <path id="_1_6" class="fil1" d="M12534.96 3153.43l38.35 243.65c162.33,-260.62 380.07,-299.18 593.68,-299.18 217.68,0 427.1,85.5 542.28,200.91l-234.78 452.79c-106.81,-89.7 -205.02,-136.65 -375.95,-136.65 -273.28,0 -525.23,145.25 -525.23,533.9l0 1110.76 -520.91 0 0 -2106.18 482.56 0z"/>
    </g>
    <g>
     <path class="fil0 str0" d="M15455.29 5259.61l0 -1102.24c0,-320.35 -175.06,-563.8 -508.12,-563.8 -320.23,0 -538.02,269.02 -538.02,589.58l0 1076.46 -516.85 0 0 -2110.38 465.56 0 34.1 286.2c213.62,-209.29 427.09,-316.16 691.78,-316.16 495.46,0 892.58,371.69 892.58,1033.9l0 1106.44 -521.03 0z"/>
     <path id="_1_7" class="fil1" d="M15455.29 5259.61l0 -1102.24c0,-320.35 -175.06,-563.8 -508.12,-563.8 -320.23,0 -538.02,269.02 -538.02,589.58l0 1076.46 -516.85 0 0 -2110.38 465.56 0 34.1 286.2c213.62,-209.29 427.09,-316.16 691.78,-316.16 495.46,0 892.58,371.69 892.58,1033.9l0 1106.44 -521.03 0z"/>
    </g>
    <g>
     <path class="fil0 str0" d="M15455.29 5259.61l0 -1102.24c0,-320.35 -175.06,-563.8 -508.12,-563.8 -320.23,0 -538.02,269.02 -538.02,589.58l0 1076.46 -516.85 0 0 -2110.38 465.56 0 34.1 286.2c213.62,-209.29 427.09,-316.16 691.78,-316.16 495.46,0 892.58,371.69 892.58,1033.9l0 1106.44 -521.03 0z"/>
     <path id="_1_8" class="fil1" d="M15455.29 5259.61l0 -1102.24c0,-320.35 -175.06,-563.8 -508.12,-563.8 -320.23,0 -538.02,269.02 -538.02,589.58l0 1076.46 -516.85 0 0 -2110.38 465.56 0 34.1 286.2c213.62,-209.29 427.09,-316.16 691.78,-316.16 495.46,0 892.58,371.69 892.58,1033.9l0 1106.44 -521.03 0z"/>
    </g>
    <g>
     <path class="fil0 str0" d="M16424.24 5259.61l520.91 0 0 -2114.56 -520.91 0 0 2114.56zm568 -2699.95c0,405.85 -615.06,405.85 -615.06,0 0,-405.78 615.06,-405.78 615.06,0z"/>
     <path id="_1_9" class="fil1" d="M16424.24 5259.61l520.91 0 0 -2114.56 -520.91 0 0 2114.56zm568 -2699.95c0,405.85 -615.06,405.85 -615.06,0 0,-405.78 615.06,-405.78 615.06,0z"/>
    </g>
    <g>
     <path class="fil0 str0" d="M16424.24 5259.61l520.91 0 0 -2114.56 -520.91 0 0 2114.56zm568 -2699.95c0,405.85 -615.06,405.85 -615.06,0 0,-405.78 615.06,-405.78 615.06,0z"/>
     <path id="_1_10" class="fil1" d="M16424.24 5259.61l520.91 0 0 -2114.56 -520.91 0 0 2114.56zm568 -2699.95c0,405.85 -615.06,405.85 -615.06,0 0,-405.78 615.06,-405.78 615.06,0z"/>
    </g>
    <g>
     <path class="fil0 str0" d="M18964.78 5259.61l0 -1102.24c0,-320.35 -175.06,-563.8 -508.12,-563.8 -320.2,0 -538.02,269.02 -538.02,589.58l0 1076.46 -516.85 0 0 -2110.38 465.59 0 34.08 286.2c213.61,-209.29 427.09,-316.16 691.77,-316.16 495.55,0 892.61,371.69 892.61,1033.9l0 1106.44 -521.06 0z"/>
     <path id="_1_11" class="fil1" d="M18964.78 5259.61l0 -1102.24c0,-320.35 -175.06,-563.8 -508.12,-563.8 -320.2,0 -538.02,269.02 -538.02,589.58l0 1076.46 -516.85 0 0 -2110.38 465.59 0 34.08 286.2c213.61,-209.29 427.09,-316.16 691.77,-316.16 495.55,0 892.61,371.69 892.61,1033.9l0 1106.44 -521.06 0z"/>
    </g>
    <g>
     <path class="fil0 str0" d="M18964.78 5259.61l0 -1102.24c0,-320.35 -175.06,-563.8 -508.12,-563.8 -320.2,0 -538.02,269.02 -538.02,589.58l0 1076.46 -516.85 0 0 -2110.38 465.59 0 34.08 286.2c213.61,-209.29 427.09,-316.16 691.77,-316.16 495.55,0 892.61,371.69 892.61,1033.9l0 1106.44 -521.06 0z"/>
     <path id="_1_12" class="fil1" d="M18964.78 5259.61l0 -1102.24c0,-320.35 -175.06,-563.8 -508.12,-563.8 -320.2,0 -538.02,269.02 -538.02,589.58l0 1076.46 -516.85 0 0 -2110.38 465.59 0 34.08 286.2c213.61,-209.29 427.09,-316.16 691.77,-316.16 495.55,0 892.61,371.69 892.61,1033.9l0 1106.44 -521.06 0z"/>
    </g>
    <g>
     <path class="fil0 str0" d="M20343.65 4153.19c0,367.29 247.77,585.17 551.01,585.17 298.84,0 546.61,-222.07 546.61,-585.17 0,-363.11 -247.77,-593.76 -546.61,-593.76 -303.24,0 -551.01,226.33 -551.01,593.76zm1242.78 -1213.3l384.27 290.44 -234.93 299.12c162.27,183.72 222.13,393.08 222.13,623.74 0,260.63 -98.21,627.92 -444.12,786.07 350.17,175.12 435.61,427.23 435.61,696.23 0,581.13 -444.2,939.83 -1054.73,939.83 -610.73,0 -1067.67,-371.63 -1067.67,-939.83l516.66 0c0,273.42 251.97,452.94 551.01,452.94 298.84,0 533.68,-162.41 533.68,-452.94 0,-290.44 -273.34,-422.81 -533.68,-422.81 -657.82,0 -1067.67,-401.67 -1067.67,-1059.49 0,-657.9 478.3,-1068.08 1067.67,-1068.08 166.46,0 337.19,21.39 482.47,119.6l209.3 -264.82z"/>
     <path id="_1_13" class="fil1" d="M20343.65 4153.19c0,367.29 247.77,585.17 551.01,585.17 298.84,0 546.61,-222.07 546.61,-585.17 0,-363.11 -247.77,-593.76 -546.61,-593.76 -303.24,0 -551.01,226.33 -551.01,593.76zm1242.78 -1213.3l384.27 290.44 -234.93 299.12c162.27,183.72 222.13,393.08 222.13,623.74 0,260.63 -98.21,627.92 -444.12,786.07 350.17,175.12 435.61,427.23 435.61,696.23 0,581.13 -444.2,939.83 -1054.73,939.83 -610.73,0 -1067.67,-371.63 -1067.67,-939.83l516.66 0c0,273.42 251.97,452.94 551.01,452.94 298.84,0 533.68,-162.41 533.68,-452.94 0,-290.44 -273.34,-422.81 -533.68,-422.81 -657.82,0 -1067.67,-401.67 -1067.67,-1059.49 0,-657.9 478.3,-1068.08 1067.67,-1068.08 166.46,0 337.19,21.39 482.47,119.6l209.3 -264.82z"/>
    </g>
    <g>
     <path class="fil0 str0" d="M20343.65 4153.19c0,367.29 247.77,585.17 551.01,585.17 298.84,0 546.61,-222.07 546.61,-585.17 0,-363.11 -247.77,-593.76 -546.61,-593.76 -303.24,0 -551.01,226.33 -551.01,593.76zm1242.78 -1213.3l384.27 290.44 -234.93 299.12c162.27,183.72 222.13,393.08 222.13,623.74 0,260.63 -98.21,627.92 -444.12,786.07 350.17,175.12 435.61,427.23 435.61,696.23 0,581.13 -444.2,939.83 -1054.73,939.83 -610.73,0 -1067.67,-371.63 -1067.67,-939.83l516.66 0c0,273.42 251.97,452.94 551.01,452.94 298.84,0 533.68,-162.41 533.68,-452.94 0,-290.44 -273.34,-422.81 -533.68,-422.81 -657.82,0 -1067.67,-401.67 -1067.67,-1059.49 0,-657.9 478.3,-1068.08 1067.67,-1068.08 166.46,0 337.19,21.39 482.47,119.6l209.3 -264.82z"/>
     <path id="_1_14" class="fil1" d="M20343.65 4153.19c0,367.29 247.77,585.17 551.01,585.17 298.84,0 546.61,-222.07 546.61,-585.17 0,-363.11 -247.77,-593.76 -546.61,-593.76 -303.24,0 -551.01,226.33 -551.01,593.76zm1242.78 -1213.3l384.27 290.44 -234.93 299.12c162.27,183.72 222.13,393.08 222.13,623.74 0,260.63 -98.21,627.92 -444.12,786.07 350.17,175.12 435.61,427.23 435.61,696.23 0,581.13 -444.2,939.83 -1054.73,939.83 -610.73,0 -1067.67,-371.63 -1067.67,-939.83l516.66 0c0,273.42 251.97,452.94 551.01,452.94 298.84,0 533.68,-162.41 533.68,-452.94 0,-290.44 -273.34,-422.81 -533.68,-422.81 -657.82,0 -1067.67,-401.67 -1067.67,-1059.49 0,-657.9 478.3,-1068.08 1067.67,-1068.08 166.46,0 337.19,21.39 482.47,119.6l209.3 -264.82z"/>
    </g>
    <g>
     <polygon class="fil0 str0" points="556.05,2272.76 1904.29,2272.76 1904.29,3621.53 556.05,3621.53 "/>
     <polygon id="_1_15" class="fil1" points="556.05,2272.76 1904.29,2272.76 1904.29,3621.53 556.05,3621.53 "/>
    </g>
    <g>
     <path class="fil0 str0" d="M1921.7 2255.3l-1383.12 0 0 1383.67 1383.12 0 0 -1383.67zm-34.93 1348.68l-1313.26 0 0 -1313.81 1313.26 0 0 1313.81z"/>
     <path id="_1_16" class="fil1" d="M1921.7 2255.3l-1383.12 0 0 1383.67 1383.12 0 0 -1383.67zm-34.93 1348.68l-1313.26 0 0 -1313.81 1313.26 0 0 1313.81z"/>
    </g>
    <g>
     <path class="fil0 str0" d="M2871.47 3621.47c-371.69,0 -674.1,-302.55 -674.1,-674.37 0,-371.83 302.41,-674.38 674.1,-674.38 371.71,0 674.09,302.55 674.09,674.38 0,371.82 -302.38,674.37 -674.09,674.37z"/>
     <path id="_1_17" class="fil1" d="M2871.47 3621.47c-371.69,0 -674.1,-302.55 -674.1,-674.37 0,-371.83 302.41,-674.38 674.1,-674.38 371.71,0 674.09,302.55 674.09,674.38 0,371.82 -302.38,674.37 -674.09,674.37z"/>
    </g>
    <g>
     <path class="fil0 str0" d="M2871.47 2255.28c-381.97,0 -691.56,309.73 -691.56,691.84 0,382.1 309.59,691.83 691.56,691.83 381.96,0 691.56,-309.73 691.56,-691.83 0,-382.11 -309.6,-691.84 -691.56,-691.84zm0 34.93c362.12,0 656.63,294.64 656.63,656.91 0,362.2 -294.51,656.92 -656.63,656.92 -362.13,0 -656.63,-294.72 -656.63,-656.92 0,-362.27 294.5,-656.91 656.63,-656.91z"/>
     <path id="_1_18" class="fil1" d="M2871.47 2255.28c-381.97,0 -691.56,309.73 -691.56,691.84 0,382.1 309.59,691.83 691.56,691.83 381.96,0 691.56,-309.73 691.56,-691.83 0,-382.11 -309.6,-691.84 -691.56,-691.84zm0 34.93c362.12,0 656.63,294.64 656.63,656.91 0,362.2 -294.51,656.92 -656.63,656.92 -362.13,0 -656.63,-294.72 -656.63,-656.92 0,-362.27 294.5,-656.91 656.63,-656.91z"/>
    </g>
    <g>
     <polygon class="fil0 str0" points="556.05,3896.19 1904.29,3896.19 1904.29,5244.93 556.05,5244.93 "/>
     <polygon id="_1_19" class="fil1" points="556.05,3896.19 1904.29,3896.19 1904.29,5244.93 556.05,5244.93 "/>
    </g>
    <g>
     <path class="fil0 str0" d="M1921.7 3878.73l-1383.12 0 0 1383.67 1383.12 0 0 -1383.67zm-34.93 1348.82l-1313.26 0 0 -1313.84 1313.26 0 0 1313.84z"/>
     <path id="_1_20" class="fil1" d="M1921.7 3878.73l-1383.12 0 0 1383.67 1383.12 0 0 -1383.67zm-34.93 1348.82l-1313.26 0 0 -1313.84 1313.26 0 0 1313.84z"/>
    </g>
    <g>
     <path class="fil0 str0" d="M2197.35 5244.97l0 -674.37c0,-371.91 302.41,-674.37 674.12,-674.37 371.69,0 674.09,302.46 674.09,674.37 0,371.83 -302.4,674.37 -674.09,674.37l-674.12 0z"/>
     <path id="_1_21" class="fil1" d="M2197.35 5244.97l0 -674.37c0,-371.91 302.41,-674.37 674.12,-674.37 371.69,0 674.09,302.46 674.09,674.37 0,371.83 -302.4,674.37 -674.09,674.37l-674.12 0z"/>
    </g>
    <g>
     <path class="fil0 str0" d="M2871.47 3878.75c-381.97,0 -691.56,309.73 -691.56,691.83l0 691.84 691.56 0c381.96,0 691.56,-309.73 691.56,-691.84 0,-382.1 -309.6,-691.83 -691.56,-691.83zm0 34.93c362.12,0 656.63,294.72 656.63,656.9 0,362.21 -294.51,656.93 -656.63,656.93l-656.63 0 0 -656.93c0,-362.18 294.5,-656.9 656.63,-656.9z"/>
     <path id="_1_22" class="fil1" d="M2871.47 3878.75c-381.97,0 -691.56,309.73 -691.56,691.83l0 691.84 691.56 0c381.96,0 691.56,-309.73 691.56,-691.84 0,-382.1 -309.6,-691.83 -691.56,-691.83zm0 34.93c362.12,0 656.63,294.72 656.63,656.9 0,362.21 -294.51,656.93 -656.63,656.93l-656.63 0 0 -656.93c0,-362.18 294.5,-656.9 656.63,-656.9z"/>
    </g>
    <g>
     <path class="fil0 str0" d="M22910.46 4759.23l876.67 0c234.36,0 568.55,-78.16 568.55,-364.7 0,-273.56 -334.19,-416.84 -568.55,-416.84l-876.67 0 0 781.54zm0 -1285.1l876.67 0c360.24,0 477.38,-151.94 477.38,-325.67 0,-138.87 -112.8,-373.38 -477.38,-373.38l-876.67 0 0 699.05zm1922.61 -338.66c0,234.42 -112.83,460.2 -394.96,586.13 355.91,108.57 486.04,486.2 486.04,677.25 0,677.32 -507.7,894.42 -1137.02,894.42l-1440.82 0 0 -3039.1 1440.82 0c598.94,0 1045.94,269.16 1045.94,881.3z"/>
     <path id="_1_23" class="fil1" d="M22910.46 4759.23l876.67 0c234.36,0 568.55,-78.16 568.55,-364.7 0,-273.56 -334.19,-416.84 -568.55,-416.84l-876.67 0 0 781.54zm0 -1285.1l876.67 0c360.24,0 477.38,-151.94 477.38,-325.67 0,-138.87 -112.8,-373.38 -477.38,-373.38l-876.67 0 0 699.05zm1922.61 -338.66c0,234.42 -112.83,460.2 -394.96,586.13 355.91,108.57 486.04,486.2 486.04,677.25 0,677.32 -507.7,894.42 -1137.02,894.42l-1440.82 0 0 -3039.1 1440.82 0c598.94,0 1045.94,269.16 1045.94,881.3z"/>
    </g>
    <g>
     <path class="fil0 str0" d="M22910.46 4759.23l876.67 0c234.36,0 568.55,-78.16 568.55,-364.7 0,-273.56 -334.19,-416.84 -568.55,-416.84l-876.67 0 0 781.54zm0 -1285.1l876.67 0c360.24,0 477.38,-151.94 477.38,-325.67 0,-138.87 -112.8,-373.38 -477.38,-373.38l-876.67 0 0 699.05zm1922.61 -338.66c0,234.42 -112.83,460.2 -394.96,586.13 355.91,108.57 486.04,486.2 486.04,677.25 0,677.32 -507.7,894.42 -1137.02,894.42l-1440.82 0 0 -3039.1 1440.82 0c598.94,0 1045.94,269.16 1045.94,881.3z"/>
     <path id="_1_24" class="fil1" d="M22910.46 4759.23l876.67 0c234.36,0 568.55,-78.16 568.55,-364.7 0,-273.56 -334.19,-416.84 -568.55,-416.84l-876.67 0 0 781.54zm0 -1285.1l876.67 0c360.24,0 477.38,-151.94 477.38,-325.67 0,-138.87 -112.8,-373.38 -477.38,-373.38l-876.67 0 0 699.05zm1922.61 -338.66c0,234.42 -112.83,460.2 -394.96,586.13 355.91,108.57 486.04,486.2 486.04,677.25 0,677.32 -507.7,894.42 -1137.02,894.42l-1440.82 0 0 -3039.1 1440.82 0c598.94,0 1045.94,269.16 1045.94,881.3z"/>
    </g>
    <g>
     <polygon class="fil0 str0" points="25332.51,2254.19 25900.99,2254.19 25900.99,5293.27 25332.51,5293.27 "/>
     <polygon id="_1_25" class="fil1" points="25332.51,2254.19 25900.99,2254.19 25900.99,5293.27 25332.51,5293.27 "/>
    </g>
    <g>
     <polygon class="fil0 str0" points="28500.72,2254.15 29130.04,2254.15 29130.04,2280.21 28101.42,3756.31 29160.36,5275.84 29160.36,5293.25 28518.12,5293.25 27741.2,4151.41 26964.42,5293.25 26322.1,5293.25 26322.1,5275.84 27376.62,3756.31 26352.42,2280.21 26352.42,2254.15 26981.74,2254.15 27741.2,3387.34 "/>
     <polygon id="_1_26" class="fil1" points="28500.72,2254.15 29130.04,2254.15 29130.04,2280.21 28101.42,3756.31 29160.36,5275.84 29160.36,5293.25 28518.12,5293.25 27741.2,4151.41 26964.42,5293.25 26322.1,5293.25 26322.1,5275.84 27376.62,3756.31 26352.42,2280.21 26352.42,2254.15 26981.74,2254.15 27741.2,3387.34 "/>
    </g>
    <g>
     <polygon class="fil0 str0" points="28500.72,2254.15 29130.04,2254.15 29130.04,2280.21 28101.42,3756.31 29160.36,5275.84 29160.36,5293.25 28518.12,5293.25 27741.2,4151.41 26964.42,5293.25 26322.1,5293.25 26322.1,5275.84 27376.62,3756.31 26352.42,2280.21 26352.42,2254.15 26981.74,2254.15 27741.2,3387.34 "/>
     <polygon id="_1_27" class="fil1" points="28500.72,2254.15 29130.04,2254.15 29130.04,2280.21 28101.42,3756.31 29160.36,5275.84 29160.36,5293.25 28518.12,5293.25 27741.2,4151.41 26964.42,5293.25 26322.1,5293.25 26322.1,5275.84 27376.62,3756.31 26352.42,2280.21 26352.42,2254.15 26981.74,2254.15 27741.2,3387.34 "/>
    </g>
   </g>
   <g>
    <polygon class="fil2" points="5059.13,2269.26 5059.13,4738.34 6596.42,4738.34 6596.42,5259.61 4495.33,5259.61 4495.33,2269.26 "/>
    <polygon class="fil0" points="5059.13,2269.26 5059.13,4738.34 6596.42,4738.34 6596.42,5259.61 4495.33,5259.61 4495.33,2269.26 "/>
    <path class="fil2" d="M8543.22 3960.88c-34.16,-273.41 -247.71,-410.04 -546.61,-410.04 -281.87,0 -512.46,136.63 -589.37,410.04l1135.98 0zm-1144.57 431.57c34.16,260.62 260.56,448.54 627.92,448.54 192.03,0 444,-72.65 563.6,-196.51l333.2 328.94c-222.21,230.66 -585.17,341.73 -905.38,341.73 -726.07,0 -1157.36,-448.6 -1157.36,-1123.6 0,-640.71 435.63,-1102.1 1118.79,-1102.1 704.77,0 1144.57,435.68 1063.55,1303l-1644.32 0z"/>
    <path class="fil0" d="M8543.22 3960.88c-34.16,-273.41 -247.71,-410.04 -546.61,-410.04 -281.87,0 -512.46,136.63 -589.37,410.04l1135.98 0zm-1144.57 431.57c34.16,260.62 260.56,448.54 627.92,448.54 192.03,0 444,-72.65 563.6,-196.51l333.2 328.94c-222.21,230.66 -585.17,341.73 -905.38,341.73 -726.07,0 -1157.36,-448.6 -1157.36,-1123.6 0,-640.71 435.63,-1102.1 1118.79,-1102.1 704.77,0 1144.57,435.68 1063.55,1303l-1644.32 0z"/>
    <path class="fil2" d="M9849.43 4204.5c0,401.45 277.54,640.69 623.44,640.69 819.95,0 819.95,-1277.36 0,-1277.36 -345.9,0 -623.44,235.06 -623.44,636.67zm1263.94 -1051.04l499.74 0 0 2106.11 -491.15 0 -25.56 -307.5c-119.58,247.84 -448.4,367.3 -683.38,371.63 -623.45,4.26 -1084.64,-380.22 -1084.64,-1119.2 0,-726.35 482.5,-1106.58 1097.43,-1102.24 281.93,0 551.01,132.43 670.59,341.73l16.97 -290.53z"/>
    <path class="fil0" d="M9849.43 4204.5c0,401.45 277.54,640.69 623.44,640.69 819.95,0 819.95,-1277.36 0,-1277.36 -345.9,0 -623.44,235.06 -623.44,636.67zm1263.94 -1051.04l499.74 0 0 2106.11 -491.15 0 -25.56 -307.5c-119.58,247.84 -448.4,367.3 -683.38,371.63 -623.45,4.26 -1084.64,-380.22 -1084.64,-1119.2 0,-726.35 482.5,-1106.58 1097.43,-1102.24 281.93,0 551.01,132.43 670.59,341.73l16.97 -290.53z"/>
    <path class="fil2" d="M12534.96 3153.43l38.35 243.65c162.33,-260.62 380.07,-299.18 593.68,-299.18 217.68,0 427.1,85.5 542.28,200.91l-234.78 452.79c-106.81,-89.7 -205.02,-136.65 -375.95,-136.65 -273.28,0 -525.23,145.25 -525.23,533.9l0 1110.76 -520.91 0 0 -2106.18 482.56 0z"/>
    <path class="fil0" d="M12534.96 3153.43l38.35 243.65c162.33,-260.62 380.07,-299.18 593.68,-299.18 217.68,0 427.1,85.5 542.28,200.91l-234.78 452.79c-106.81,-89.7 -205.02,-136.65 -375.95,-136.65 -273.28,0 -525.23,145.25 -525.23,533.9l0 1110.76 -520.91 0 0 -2106.18 482.56 0z"/>
    <path class="fil2" d="M15455.29 5259.61l0 -1102.24c0,-320.35 -175.06,-563.8 -508.12,-563.8 -320.23,0 -538.02,269.02 -538.02,589.58l0 1076.46 -516.85 0 0 -2110.38 465.56 0 34.1 286.2c213.62,-209.29 427.09,-316.16 691.78,-316.16 495.46,0 892.58,371.69 892.58,1033.9l0 1106.44 -521.03 0z"/>
    <path class="fil0" d="M15455.29 5259.61l0 -1102.24c0,-320.35 -175.06,-563.8 -508.12,-563.8 -320.23,0 -538.02,269.02 -538.02,589.58l0 1076.46 -516.85 0 0 -2110.38 465.56 0 34.1 286.2c213.62,-209.29 427.09,-316.16 691.78,-316.16 495.46,0 892.58,371.69 892.58,1033.9l0 1106.44 -521.03 0z"/>
    <path class="fil2" d="M16424.24 5259.61l520.91 0 0 -2114.56 -520.91 0 0 2114.56zm568 -2699.95c0,405.85 -615.06,405.85 -615.06,0 0,-405.78 615.06,-405.78 615.06,0z"/>
    <path class="fil0" d="M16424.24 5259.61l520.91 0 0 -2114.56 -520.91 0 0 2114.56zm568 -2699.95c0,405.85 -615.06,405.85 -615.06,0 0,-405.78 615.06,-405.78 615.06,0z"/>
    <path class="fil2" d="M18964.78 5259.61l0 -1102.24c0,-320.35 -175.06,-563.8 -508.12,-563.8 -320.2,0 -538.02,269.02 -538.02,589.58l0 1076.46 -516.85 0 0 -2110.38 465.59 0 34.08 286.2c213.61,-209.29 427.09,-316.16 691.77,-316.16 495.55,0 892.61,371.69 892.61,1033.9l0 1106.44 -521.06 0z"/>
    <path class="fil0" d="M18964.78 5259.61l0 -1102.24c0,-320.35 -175.06,-563.8 -508.12,-563.8 -320.2,0 -538.02,269.02 -538.02,589.58l0 1076.46 -516.85 0 0 -2110.38 465.59 0 34.08 286.2c213.61,-209.29 427.09,-316.16 691.77,-316.16 495.55,0 892.61,371.69 892.61,1033.9l0 1106.44 -521.06 0z"/>
    <path class="fil2" d="M20343.65 4153.19c0,367.29 247.77,585.17 551.01,585.17 298.84,0 546.61,-222.07 546.61,-585.17 0,-363.11 -247.77,-593.76 -546.61,-593.76 -303.24,0 -551.01,226.33 -551.01,593.76zm1242.78 -1213.3l384.27 290.44 -234.93 299.12c162.27,183.72 222.13,393.08 222.13,623.74 0,260.63 -98.21,627.92 -444.12,786.07 350.17,175.12 435.61,427.23 435.61,696.23 0,581.13 -444.2,939.83 -1054.73,939.83 -610.73,0 -1067.67,-371.63 -1067.67,-939.83l516.66 0c0,273.42 251.97,452.94 551.01,452.94 298.84,0 533.68,-162.41 533.68,-452.94 0,-290.44 -273.34,-422.81 -533.68,-422.81 -657.82,0 -1067.67,-401.67 -1067.67,-1059.49 0,-657.9 478.3,-1068.08 1067.67,-1068.08 166.46,0 337.19,21.39 482.47,119.6l209.3 -264.82z"/>
    <path class="fil0" d="M20343.65 4153.19c0,367.29 247.77,585.17 551.01,585.17 298.84,0 546.61,-222.07 546.61,-585.17 0,-363.11 -247.77,-593.76 -546.61,-593.76 -303.24,0 -551.01,226.33 -551.01,593.76zm1242.78 -1213.3l384.27 290.44 -234.93 299.12c162.27,183.72 222.13,393.08 222.13,623.74 0,260.63 -98.21,627.92 -444.12,786.07 350.17,175.12 435.61,427.23 435.61,696.23 0,581.13 -444.2,939.83 -1054.73,939.83 -610.73,0 -1067.67,-371.63 -1067.67,-939.83l516.66 0c0,273.42 251.97,452.94 551.01,452.94 298.84,0 533.68,-162.41 533.68,-452.94 0,-290.44 -273.34,-422.81 -533.68,-422.81 -657.82,0 -1067.67,-401.67 -1067.67,-1059.49 0,-657.9 478.3,-1068.08 1067.67,-1068.08 166.46,0 337.19,21.39 482.47,119.6l209.3 -264.82z"/>
    <polygon class="fil2" points="556.05,2272.76 1904.29,2272.76 1904.29,3621.53 556.05,3621.53 "/>
    <path class="fil3" d="M1921.7 2255.3l-1383.12 0 0 1383.67 1383.12 0 0 -1383.67zm-34.93 1348.68l-1313.26 0 0 -1313.81 1313.26 0 0 1313.81z"/>
    <path class="fil4" d="M2871.47 3621.47c-371.69,0 -674.1,-302.55 -674.1,-674.37 0,-371.83 302.41,-674.38 674.1,-674.38 371.71,0 674.09,302.55 674.09,674.38 0,371.82 -302.38,674.37 -674.09,674.37z"/>
    <path class="fil3" d="M2871.47 2255.28c-381.97,0 -691.56,309.73 -691.56,691.84 0,382.1 309.59,691.83 691.56,691.83 381.96,0 691.56,-309.73 691.56,-691.83 0,-382.11 -309.6,-691.84 -691.56,-691.84zm0 34.93c362.12,0 656.63,294.64 656.63,656.91 0,362.2 -294.51,656.92 -656.63,656.92 -362.13,0 -656.63,-294.72 -656.63,-656.92 0,-362.27 294.5,-656.91 656.63,-656.91z"/>
    <polygon class="fil2" points="556.05,3896.19 1904.29,3896.19 1904.29,5244.93 556.05,5244.93 "/>
    <path class="fil3" d="M1921.7 3878.73l-1383.12 0 0 1383.67 1383.12 0 0 -1383.67zm-34.93 1348.82l-1313.26 0 0 -1313.84 1313.26 0 0 1313.84z"/>
    <path class="fil2" d="M2197.35 5244.97l0 -674.37c0,-371.91 302.41,-674.37 674.12,-674.37 371.69,0 674.09,302.46 674.09,674.37 0,371.83 -302.4,674.37 -674.09,674.37l-674.12 0z"/>
    <path class="fil3" d="M2871.47 3878.75c-381.97,0 -691.56,309.73 -691.56,691.83l0 691.84 691.56 0c381.96,0 691.56,-309.73 691.56,-691.84 0,-382.1 -309.6,-691.83 -691.56,-691.83zm0 34.93c362.12,0 656.63,294.72 656.63,656.9 0,362.21 -294.51,656.93 -656.63,656.93l-656.63 0 0 -656.93c0,-362.18 294.5,-656.9 656.63,-656.9z"/>
    <path class="fil4" d="M22910.46 4759.23l876.67 0c234.36,0 568.55,-78.16 568.55,-364.7 0,-273.56 -334.19,-416.84 -568.55,-416.84l-876.67 0 0 781.54zm0 -1285.1l876.67 0c360.24,0 477.38,-151.94 477.38,-325.67 0,-138.87 -112.8,-373.38 -477.38,-373.38l-876.67 0 0 699.05zm1922.61 -338.66c0,234.42 -112.83,460.2 -394.96,586.13 355.91,108.57 486.04,486.2 486.04,677.25 0,677.32 -507.7,894.42 -1137.02,894.42l-1440.82 0 0 -3039.1 1440.82 0c598.94,0 1045.94,269.16 1045.94,881.3z"/>
    <path class="fil4" d="M22910.46 4759.23l876.67 0c234.36,0 568.55,-78.16 568.55,-364.7 0,-273.56 -334.19,-416.84 -568.55,-416.84l-876.67 0 0 781.54zm0 -1285.1l876.67 0c360.24,0 477.38,-151.94 477.38,-325.67 0,-138.87 -112.8,-373.38 -477.38,-373.38l-876.67 0 0 699.05zm1922.61 -338.66c0,234.42 -112.83,460.2 -394.96,586.13 355.91,108.57 486.04,486.2 486.04,677.25 0,677.32 -507.7,894.42 -1137.02,894.42l-1440.82 0 0 -3039.1 1440.82 0c598.94,0 1045.94,269.16 1045.94,881.3z"/>
    <polygon class="fil4" points="25332.51,2254.19 25900.99,2254.19 25900.99,5293.27 25332.51,5293.27 "/>
    <polygon class="fil4" points="28500.72,2254.15 29130.04,2254.15 29130.04,2280.21 28101.42,3756.31 29160.36,5275.84 29160.36,5293.25 28518.12,5293.25 27741.2,4151.41 26964.42,5293.25 26322.1,5293.25 26322.1,5275.84 27376.62,3756.31 26352.42,2280.21 26352.42,2254.15 26981.74,2254.15 27741.2,3387.34 "/>
    <polygon class="fil4" points="28500.72,2254.15 29130.04,2254.15 29130.04,2280.21 28101.42,3756.31 29160.36,5275.84 29160.36,5293.25 28518.12,5293.25 27741.2,4151.41 26964.42,5293.25 26322.1,5293.25 26322.1,5275.84 27376.62,3756.31 26352.42,2280.21 26352.42,2254.15 26981.74,2254.15 27741.2,3387.34 "/>
   </g>
  </g>
 </g>
</svg>
