<?xml version="1.0" standalone="no"?>
<!DOCTYPE svg PUBLIC "-//W3C//DTD SVG 20010904//EN"
 "http://www.w3.org/TR/2001/REC-SVG-20010904/DTD/svg10.dtd">
<svg version="1.0" xmlns="http://www.w3.org/2000/svg"
 width="519.000000pt" height="519.000000pt" viewBox="0 0 519.000000 519.000000"
 preserveAspectRatio="xMidYMid meet">

<g transform="translate(0.000000,519.000000) scale(0.100000,-0.100000)"
fill="#000000" stroke="none">
<path d="M2345 5173 c-22 -2 -96 -13 -164 -24 -541 -86 -1031 -337 -1421 -728
-396 -396 -651 -903 -732 -1455 -31 -211 -31 -548 0 -751 129 -832 630 -1537
1365 -1920 363 -190 713 -279 1137 -292 296 -8 569 29 843 117 676 216 1221
681 1536 1310 383 766 368 1645 -42 2405 -398 736 -1155 1242 -1999 1334 -90
10 -431 13 -523 4z m65 -278 c0 -21 -5 -25 -30 -25 -25 0 -30 4 -30 25 0 21 5
25 30 25 25 0 30 -4 30 -25z m220 0 c0 -21 -5 -25 -30 -25 -25 0 -30 4 -30 25
0 21 5 25 30 25 25 0 30 -4 30 -25z m220 0 c0 -20 -5 -25 -25 -25 -20 0 -25 5
-25 25 0 20 5 25 25 25 20 0 25 -5 25 -25z m-742 -2 l-198 -3 0 -255 0 -255
685 0 685 0 0 255 0 255 -197 3 -198 2 203 3 202 2 0 -259 0 -259 548 -546
547 -545 258 -1 257 0 -2 -197 -3 -198 -2 193 -3 192 -255 0 -255 0 0 -690 0
-690 255 0 255 0 3 198 2 197 3 -202 2 -203 -263 0 -262 0 -218 -218 c-182
-182 -215 -220 -205 -232 11 -12 10 -12 -3 -2 -14 10 -18 10 -23 -4 -3 -9 -3
-21 1 -27 5 -8 2 -8 -8 0 -13 11 -63 -36 -322 -301 l-307 -314 0 -256 0 -256
-197 2 -198 3 193 2 192 3 0 255 0 255 -685 0 -685 0 0 -255 0 -255 198 -3
197 -2 -207 -3 -208 -2 0 261 0 261 -267 272 c-146 149 -270 271 -275 271 -4
0 -8 5 -8 10 0 6 -118 128 -262 272 l-263 263 -267 0 -268 0 0 209 c0 114 -3
229 -6 255 -7 45 -6 46 20 46 22 0 26 -4 26 -30 0 -21 -5 -30 -16 -30 -14 0
-15 -7 -10 -38 3 -20 6 -119 6 -219 l0 -183 250 0 250 0 0 690 0 690 -250 0
-250 0 0 -174 c0 -95 -3 -194 -6 -220 -6 -38 -4 -46 10 -46 10 0 16 -9 16 -25
0 -20 -5 -25 -26 -25 -25 0 -26 2 -20 38 3 20 6 133 6 250 l0 212 262 0 263 0
542 542 543 543 0 262 0 263 208 -2 207 -3 -197 -2z m302 -223 c0 -27 -3 -30
-30 -30 -27 0 -30 3 -30 30 0 27 3 30 30 30 27 0 30 -3 30 -30z m220 0 c0 -27
-3 -30 -30 -30 -27 0 -30 3 -30 30 0 27 3 30 30 30 27 0 30 -3 30 -30z m220 0
c0 -25 -4 -30 -25 -30 -21 0 -25 5 -25 30 0 25 4 30 25 30 21 0 25 -5 25 -30z
m-1620 -485 c0 -5 -64 54 -143 133 l-142 142 -103 -103 -102 -102 140 -140
c77 -77 140 -144 140 -150 0 -5 -67 58 -150 140 l-150 150 112 112 113 113
142 -142 c79 -79 143 -147 143 -153z m-278 188 c15 -15 28 -31 28 -37 0 -16
-103 -116 -119 -116 -17 0 -61 39 -61 54 0 10 110 126 119 126 3 0 18 -12 33
-27z m698 -67 c0 -2 -7 -7 -16 -10 -8 -3 -12 -2 -9 4 6 10 25 14 25 6z m1814
-65 c-2 -3 -12 3 -22 13 -16 17 -16 18 5 5 12 -7 20 -15 17 -18z m-2436 -44
c4 -20 -25 -34 -40 -19 -15 15 -1 44 19 40 10 -2 19 -11 21 -21z m157 -57 l29
-30 -59 -60 c-33 -33 -64 -60 -69 -60 -16 0 -56 42 -56 59 0 17 99 121 115
121 6 0 24 -14 40 -30z m-267 -135 c-3 -3 -9 2 -12 12 -6 14 -5 15 5 6 7 -7
10 -15 7 -18z m3450 -240 c-3 -3 -9 2 -12 12 -6 14 -5 15 5 6 7 -7 10 -15 7
-18z m-3818 -950 c0 -21 -5 -25 -30 -25 -25 0 -30 4 -30 25 0 21 5 25 30 25
25 0 30 -4 30 -25z m4160 0 c0 -21 -5 -25 -30 -25 -25 0 -30 4 -30 25 0 21 5
25 30 25 25 0 30 -4 30 -25z m220 0 c0 -20 -5 -25 -25 -25 -20 0 -25 5 -25 25
0 20 5 25 25 25 20 0 25 -5 25 -25z m-4610 -225 c0 -25 -4 -30 -25 -30 -21 0
-25 5 -25 30 0 25 4 30 25 30 21 0 25 -5 25 -30z m230 0 c0 -27 -3 -30 -30
-30 -27 0 -30 3 -30 30 0 27 3 30 30 30 27 0 30 -3 30 -30z m4160 0 c0 -27 -3
-30 -30 -30 -27 0 -30 3 -30 30 0 27 3 30 30 30 27 0 30 -3 30 -30z m220 0 c0
-25 -4 -30 -25 -30 -21 0 -25 5 -25 30 0 25 4 30 25 30 21 0 25 -5 25 -30z
m-4380 -220 c0 -27 -3 -30 -30 -30 -27 0 -30 3 -30 30 0 27 3 30 30 30 27 0
30 -3 30 -30z m4160 0 c0 -27 -3 -30 -30 -30 -27 0 -30 3 -30 30 0 27 3 30 30
30 27 0 30 -3 30 -30z m220 0 c0 -25 -4 -30 -25 -30 -21 0 -25 5 -25 30 0 25
4 30 25 30 21 0 25 -5 25 -30z m-142 -961 c-3 -8 -7 -3 -11 10 -4 17 -3 21 5
13 5 -5 8 -16 6 -23z m-535 -21 c9 -11 17 -33 17 -49 0 -66 -88 -95 -129 -43
-25 32 -26 52 -5 82 31 45 83 49 117 10z m512 4 c-3 -3 -11 0 -18 7 -9 10 -8
11 6 5 10 -3 15 -9 12 -12z m-227 -117 c40 -43 43 -85 7 -120 -34 -35 -76 -33
-119 5 -18 17 -37 42 -40 56 -14 53 41 110 94 99 14 -3 40 -21 58 -40z m-645
-243 c24 -21 22 -77 -3 -102 -30 -30 -83 -27 -110 7 -57 72 43 156 113 95z
m127 -279 c38 -42 40 -84 5 -118 -39 -40 -84 -34 -129 15 -20 22 -36 47 -36
54 0 33 22 68 51 80 43 18 74 9 109 -31z m-1610 -243 c0 -27 -3 -30 -30 -30
-27 0 -30 3 -30 30 0 27 3 30 30 30 27 0 30 -3 30 -30z m220 0 c0 -27 -3 -30
-30 -30 -27 0 -30 3 -30 30 0 27 3 30 30 30 27 0 30 -3 30 -30z m220 0 c0 -27
-3 -30 -30 -30 -27 0 -30 3 -30 30 0 27 3 30 30 30 27 0 30 -3 30 -30z m195
-18 c-3 -3 -11 0 -18 7 -9 10 -8 11 6 5 10 -3 15 -9 12 -12z m-1250 -42 c-3
-5 -12 -10 -18 -10 -7 0 -6 4 3 10 19 12 23 12 15 0z m615 -165 c0 -21 -5 -25
-30 -25 -25 0 -30 4 -30 25 0 21 5 25 30 25 25 0 30 -4 30 -25z m220 0 c0 -21
-5 -25 -30 -25 -25 0 -30 4 -30 25 0 21 5 25 30 25 25 0 30 -4 30 -25z m220 0
c0 -21 -5 -25 -30 -25 -25 0 -30 4 -30 25 0 21 5 25 30 25 25 0 30 -4 30 -25z"/>
<path d="M1357 3822 l-547 -547 0 -678 0 -677 397 -403 c219 -221 465 -471
548 -555 l149 -152 686 0 685 0 548 548 547 547 0 688 -1 688 -547 544 -547
544 -685 1 -685 0 -548 -548z m531 396 c7 -7 12 -21 12 -33 0 -29 -19 -45 -52
-45 -25 0 -28 -3 -28 -35 0 -19 -4 -35 -10 -35 -6 0 -10 33 -10 80 l0 80 38 0
c21 0 43 -5 50 -12z m142 -7 c16 -31 12 -102 -7 -123 -20 -22 -51 -23 -75 -1
-21 19 -26 111 -6 131 20 20 76 15 88 -7z m142 -6 c9 -19 8 -29 -6 -50 -15
-23 -15 -27 -1 -49 27 -40 -1 -40 -32 1 l-28 37 -5 -33 c-9 -60 -25 -37 -28
42 l-3 77 46 0 c39 0 47 -4 57 -25z m118 15 c0 -5 -9 -10 -20 -10 -18 0 -20
-7 -20 -70 0 -40 -4 -70 -10 -70 -6 0 -10 30 -10 70 0 63 -2 70 -20 70 -11 0
-20 5 -20 10 0 6 23 10 50 10 28 0 50 -4 50 -10z m208 -2 c21 -21 13 -53 -19
-84 l-30 -29 38 -7 c21 -4 61 -7 90 -7 l52 -1 22 70 c13 39 28 70 34 70 6 0
21 -30 32 -67 18 -55 20 -77 13 -113 -5 -25 -9 -48 -10 -52 0 -5 -53 -8 -118
-8 l-117 0 3 46 4 45 -35 -6 c-59 -11 -62 3 -12 56 38 41 44 53 35 64 -13 16
-40 20 -40 8 0 -5 -11 -8 -24 -8 -23 0 -23 1 -9 18 18 20 73 23 91 5z m314
-36 l27 -47 1 48 c0 26 5 47 10 47 6 0 10 -33 10 -80 0 -44 -3 -80 -8 -80 -4
0 -19 21 -32 46 l-25 45 -5 -43 c-8 -70 -25 -49 -28 35 -3 93 10 100 50 29z
m165 -27 c16 -48 20 -72 13 -79 -7 -7 -12 -4 -16 12 -8 29 -49 30 -64 2 -6
-11 -15 -18 -20 -15 -12 7 40 157 53 152 6 -2 21 -34 34 -72z m63 11 l0 -65
33 -3 c46 -4 39 -22 -10 -26 l-43 -3 0 80 c0 47 4 81 10 81 6 0 10 -28 10 -64z
m186 39 c21 -32 13 -103 -12 -122 -42 -30 -83 -5 -91 55 -7 55 15 92 57 92 21
0 35 -8 46 -25z m139 10 c0 -5 -13 -10 -28 -10 -16 -1 -32 -7 -38 -15 -13 -21
-11 -64 3 -78 17 -17 48 -15 48 3 0 8 -7 15 -16 15 -23 0 -11 24 14 28 19 3
22 -1 22 -36 0 -34 -4 -41 -25 -46 -70 -18 -112 86 -58 140 17 16 78 16 78 -1z
m-930 -45 c-3 -5 -10 -10 -16 -10 -5 0 -9 5 -9 10 0 6 7 10 16 10 8 0 12 -4 9
-10z m15 -230 c0 -6 55 -10 144 -10 86 0 147 4 151 10 3 6 33 10 66 10 l59 0
0 -315 0 -315 -275 0 -275 0 0 315 0 315 65 0 c37 0 65 -4 65 -10z m-180 -138
c0 -46 -20 -64 -65 -60 -35 3 -41 7 -50 36 -7 24 -15 32 -32 32 -13 0 -23 5
-23 10 0 6 35 10 85 10 l85 0 0 -28z m-360 -47 c29 -30 52 -57 49 -59 -3 -3
-32 21 -64 54 -33 33 -55 60 -49 60 5 0 34 -25 64 -55z m1175 35 c-3 -5 -26
-10 -50 -10 -46 0 -59 -8 -49 -34 4 -10 23 -16 57 -19 52 -3 52 -3 -10 -5
l-63 -2 0 33 c0 19 3 37 7 40 11 11 115 8 108 -3z m-1248 -112 c29 -29 53 -57
53 -63 0 -6 -14 -24 -30 -40 l-30 -29 -60 59 c-33 33 -60 64 -60 69 0 16 42
56 59 56 8 0 39 -23 68 -52z m1630 20 c13 -12 23 -28 23 -37 0 -17 -99 -121
-115 -121 -6 0 -24 14 -40 30 l-29 30 59 60 c33 33 64 60 69 60 5 0 20 -10 33
-22z m-131 -25 c-7 -7 -26 7 -26 19 0 6 6 6 15 -2 9 -7 13 -15 11 -17z m-1066
7 c0 -5 -22 -10 -50 -10 -46 0 -50 -2 -50 -24 0 -23 4 -25 53 -29 l52 -3 -62
-2 c-63 -2 -63 -2 -63 26 0 15 5 33 12 40 14 14 108 16 108 2z m666 -37 c-10
-10 -19 5 -10 18 6 11 8 11 12 0 2 -7 1 -15 -2 -18z m149 7 c-3 -5 -31 -10
-61 -10 -30 0 -54 5 -54 10 0 6 27 10 61 10 37 0 58 -4 54 -10z m-2 -100 c5
-4 -28 -20 -73 -35 -45 -15 -84 -24 -87 -21 -6 6 -4 7 77 34 l54 19 -33 11
c-18 7 -37 9 -42 6 -5 -3 -9 -1 -9 4 0 6 -11 13 -25 16 -14 4 -25 10 -25 16 0
9 148 -36 163 -50z m-114 -11 c-16 -10 -39 0 -39 17 0 11 5 11 25 2 17 -8 22
-14 14 -19z m-1261 -12 c4 -20 -25 -34 -40 -19 -15 15 -1 44 19 40 10 -2 19
-11 21 -21z m408 -2 c-12 -49 60 -84 115 -55 12 7 19 21 19 40 0 25 -4 30 -24
30 -15 0 -26 -7 -29 -17 -4 -14 -5 -12 -6 5 -1 19 4 22 34 22 29 0 36 -4 41
-25 18 -71 -87 -111 -148 -57 -24 20 -24 82 0 82 2 0 1 -11 -2 -25z m1424 -5
c0 -24 -26 -38 -42 -22 -16 16 -2 42 22 42 13 0 20 -7 20 -20z m-2056 -15 c-6
-16 -24 -21 -24 -7 0 11 11 22 21 22 5 0 6 -7 3 -15z m123 -57 c29 -29 53 -57
53 -63 0 -6 -14 -24 -30 -40 l-30 -29 -60 59 c-33 33 -60 64 -60 69 0 16 42
56 59 56 8 0 39 -23 68 -52z m2090 20 c13 -12 23 -26 23 -33 0 -6 -27 -37 -60
-70 l-60 -59 -30 29 c-16 16 -30 33 -30 39 0 16 103 116 119 116 8 0 25 -10
38 -22z m370 -44 c-3 -3 -12 -4 -19 -1 -8 3 -5 6 6 6 11 1 17 -2 13 -5z m4
-37 c-10 -9 -11 -8 -5 6 3 10 9 15 12 12 3 -3 0 -11 -7 -18z m-356 -57 c-32
-33 -61 -57 -64 -54 -6 6 100 114 113 114 6 0 -16 -27 -49 -60z m-617 -2 c22
-22 13 -28 -30 -22 -49 8 -68 -10 -68 -66 0 -56 19 -74 68 -66 23 3 42 3 42
-2 0 -18 -26 -32 -60 -32 -54 0 -75 28 -75 100 0 72 21 100 75 100 20 0 41 -5
48 -12z m170 0 c17 -17 15 -74 -4 -92 -8 -9 -31 -16 -50 -16 -33 0 -34 -1 -34
-40 0 -29 -4 -40 -15 -40 -12 0 -15 18 -15 100 l0 100 53 0 c29 0 58 -5 65
-12z m94 -70 l3 -83 30 0 30 0 3 83 c2 64 6 82 17 82 12 0 15 -17 15 -84 0
-97 -11 -116 -65 -116 -54 0 -65 19 -65 116 0 67 3 84 15 84 11 0 15 -18 17
-82z m-1393 -50 c-34 -51 -64 -87 -66 -81 -3 7 24 54 58 105 34 51 64 87 66
81 3 -7 -24 -54 -58 -105z m2361 38 c0 -19 -7 -42 -16 -50 -19 -19 -60 -21
-71 -3 -4 8 -16 16 -25 20 -10 3 -18 12 -17 19 0 10 2 10 6 1 8 -20 23 -15 23
7 0 12 -6 20 -12 19 -27 -3 -48 1 -48 11 0 6 33 10 80 10 l80 0 0 -34z m-2460
6 c0 -5 -19 -15 -42 -22 l-43 -13 43 -15 c46 -18 58 -38 15 -27 -43 10 -93 33
-93 42 0 10 75 40 103 42 9 0 17 -3 17 -7z m253 -8 c26 -9 49 -20 52 -25 6 -8
-46 -34 -92 -45 -40 -10 -25 11 20 28 l42 15 -42 13 c-24 7 -43 17 -43 22 0
11 10 10 63 -8z m-413 -3 c0 -12 -20 -25 -27 -18 -7 7 6 27 18 27 5 0 9 -4 9
-9z m-645 -51 c4 -6 -12 -10 -42 -10 l-48 -1 28 -15 c15 -8 27 -17 27 -19 0
-2 -12 -11 -27 -19 l-28 -15 42 -1 c23 0 45 -4 48 -10 4 -6 -23 -10 -74 -10
-89 0 -102 10 -46 37 l36 17 -36 18 c-19 10 -35 23 -35 28 0 13 147 13 155 0z
m2883 -2 c17 -17 15 -68 -5 -90 -17 -19 -43 -24 -43 -8 0 6 9 10 19 10 10 0
22 7 25 16 3 8 2 12 -4 9 -22 -13 -50 6 -50 34 0 15 3 31 7 34 10 11 38 8 51
-5z m56 -34 c9 -26 16 -34 20 -24 3 8 10 28 16 44 6 16 13 27 15 24 5 -4 -11
-57 -31 -108 -6 -15 -41 67 -43 99 -1 22 7 9 23 -35z m308 -21 c23 -21 23 -62
1 -79 -22 -17 -115 -18 -131 -2 -7 7 -12 26 -12 43 0 17 5 36 12 43 18 18 108
15 130 -5z m-1984 -95 c-3 -81 -4 -83 -28 -83 -24 0 -25 2 -28 83 l-3 82 31 0
31 0 -3 -82z m80 0 c-3 -75 -5 -83 -23 -83 -18 0 -20 8 -23 83 l-3 82 26 0 26
0 -3 -82z m90 0 c-3 -81 -4 -83 -28 -83 -24 0 -25 2 -28 83 l-3 82 31 0 31 0
-3 -82z m80 0 c-3 -81 -4 -83 -28 -83 -24 0 -25 2 -28 83 l-3 82 31 0 31 0 -3
-82z m82 -4 c0 -83 -1 -85 -22 -82 -21 3 -23 9 -26 86 -3 82 -3 82 23 82 25 0
25 -1 25 -86z m88 4 c-3 -81 -4 -83 -28 -83 -24 0 -25 2 -28 83 l-3 82 31 0
31 0 -3 -82z m80 0 c-3 -81 -4 -83 -28 -83 -24 0 -25 2 -28 83 l-3 82 31 0 31
0 -3 -82z m82 -4 c0 -83 -1 -85 -22 -82 -21 3 -23 9 -26 86 -3 82 -3 82 23 82
25 0 25 -1 25 -86z m-1007 24 c-4 -23 -4 -23 10 1 10 16 16 20 21 12 11 -17 0
-41 -18 -41 -19 0 -29 17 -22 35 8 23 15 18 9 -7z m-273 -63 l0 -75 60 0 60 0
0 -325 0 -325 -60 0 -60 0 0 -80 0 -80 -75 0 -75 0 0 80 0 80 -64 0 -65 0 -3
33 c-2 17 -1 163 2 322 l5 290 63 3 62 3 0 74 0 75 75 0 75 0 0 -75z m-643 49
c83 -19 96 -29 57 -45 -28 -12 -29 -12 -6 -18 13 -3 24 -10 25 -16 2 -10 -100
-43 -136 -44 -35 -2 -10 23 34 34 l44 11 -32 7 c-18 4 -33 11 -33 16 0 6 15
14 33 19 l32 9 -47 8 c-31 5 -48 12 -48 21 0 17 -5 17 77 -2z m3341 -72 c6
-58 -41 -91 -79 -56 -17 15 -20 15 -43 0 -30 -19 -36 -20 -36 -3 0 6 14 21 30
32 38 25 38 35 0 35 -29 0 -38 9 -23 24 4 4 39 5 78 4 l70 -3 3 -33z m-319 -9
c-2 -24 -2 -25 -6 -5 l-4 22 -279 0 -279 0 -4 -22 c-4 -20 -4 -19 -6 5 l-1 27
290 0 290 0 -1 -27z m-1754 7 c3 -5 -3 -10 -14 -10 -12 0 -21 -4 -21 -10 0 -6
-33 -9 -82 -8 l-83 2 78 3 c59 3 77 7 77 18 0 17 35 20 45 5z m723 -17 c2 -13
-1 -23 -7 -23 -6 0 -11 7 -11 15 0 8 -7 15 -15 15 -8 0 -15 5 -15 11 0 21 45
4 48 -18z m-988 -53 c0 -11 -7 -20 -15 -20 -15 0 -21 21 -8 33 12 13 23 7 23
-13z m248 -12 c3 -13 -3 -18 -20 -19 -22 0 -22 -1 -3 -9 13 -6 -7 -9 -62 -9
l-83 -1 0 30 0 31 82 -3 c70 -3 83 -6 86 -20z m882 -8 l0 -30 -82 1 c-56 0
-76 3 -63 9 19 8 19 9 -2 9 -22 1 -31 20 -16 34 3 4 42 7 85 7 l78 0 0 -30z
m340 -35 l0 -65 -75 0 -75 0 0 65 0 65 75 0 75 0 0 -65z m680 0 l0 -65 -80 0
-80 0 0 65 0 65 80 0 80 0 0 -65z m-3152 43 c7 -7 12 -25 12 -40 0 -24 4 -28
29 -28 17 0 33 -5 36 -10 5 -7 -21 -10 -77 -8 -78 3 -83 4 -86 26 -8 51 53 93
86 60z m1352 -17 c0 -27 -19 -36 -37 -18 -18 18 -9 37 18 37 12 0 19 -7 19
-19z m1990 -37 c0 -32 -4 -44 -15 -44 -8 0 -15 9 -15 20 0 18 -7 20 -65 20
-37 0 -65 4 -65 10 0 6 28 10 64 10 56 0 64 2 69 21 9 35 27 11 27 -37z
m-1137 16 c6 -22 -3 -26 -20 -9 -12 12 -6 42 7 34 4 -3 10 -14 13 -25z m-958
-50 c0 -24 -2 -25 -82 -28 l-83 -3 0 31 0 31 83 -3 c80 -3 82 -4 82 -28z m885
0 l0 -30 -80 0 c-83 0 -100 9 -86 45 4 12 24 15 86 15 l80 0 0 -30z m-1284
-20 c30 0 54 -4 54 -10 0 -5 -24 -10 -54 -10 -44 0 -55 -4 -59 -17 -3 -10 -5
2 -5 27 0 25 2 37 5 28 4 -14 15 -18 59 -18z m1784 -26 c0 -8 -4 -12 -10 -9
-5 3 -10 13 -10 21 0 8 5 12 10 9 6 -3 10 -13 10 -21z m-1382 -36 c-3 -21 -9
-23 -85 -26 -83 -3 -83 -3 -83 23 0 25 1 25 86 25 83 0 85 -1 82 -22z m882 -3
c0 -26 0 -26 -82 -23 -77 3 -83 5 -86 26 -3 21 -1 22 82 22 85 0 86 0 86 -25z
m-1319 -45 c11 0 19 7 20 18 1 16 2 16 6 0 7 -29 43 -23 43 7 0 14 5 25 10 25
6 0 10 -16 10 -35 l0 -35 -60 0 -60 0 1 38 c2 30 3 32 6 10 3 -20 10 -28 24
-28z m1445 32 c10 -15 8 -18 -7 -19 -13 -1 -19 5 -19 18 0 24 12 25 26 1z
m524 -72 c0 -16 -4 -32 -10 -35 -5 -3 -10 1 -10 9 0 12 -10 16 -35 16 -28 0
-33 -3 -28 -17 6 -16 4 -16 -15 1 -33 29 -27 36 28 36 39 0 50 4 50 16 0 8 5
12 10 9 6 -3 10 -19 10 -35z m420 20 c0 -17 7 -20 41 -20 32 0 40 3 36 15 -10
25 11 26 37 2 14 -14 26 -27 26 -31 0 -3 -31 -6 -70 -6 -63 0 -70 -2 -70 -20
0 -11 -4 -20 -10 -20 -5 0 -10 23 -10 50 0 28 5 50 10 50 6 0 10 -9 10 -20z
m-3250 -5 c15 -14 18 -14 30 0 7 8 25 15 41 15 49 0 73 -44 49 -91 -18 -32
-31 -22 -24 20 4 24 2 41 -5 45 -19 12 -51 -4 -51 -25 0 -23 -8 -24 -32 -2
-17 15 -18 14 -18 -20 0 -38 -13 -49 -24 -21 -8 21 -8 79 1 87 9 10 15 9 33
-8z m1295 -15 c0 -24 -2 -25 -82 -28 l-83 -3 0 31 0 31 83 -3 c80 -3 82 -4 82
-28z m885 0 l0 -30 -80 0 c-83 0 -100 9 -86 45 4 12 24 15 86 15 l80 0 0 -30z
m340 -45 l0 -65 -75 0 -75 0 0 65 0 65 75 0 75 0 0 -65z m680 0 l0 -65 -80 0
-80 0 0 65 0 65 80 0 80 0 0 -65z m-2353 14 c-3 -32 21 -35 33 -5 13 36 57 36
66 0 4 -14 2 -30 -5 -37 -8 -8 -11 -4 -11 15 0 39 -17 43 -35 8 -22 -43 -59
-39 -63 8 -2 18 1 32 7 32 6 0 10 -10 8 -21z m448 -49 c0 -24 -2 -25 -82 -28
l-83 -3 0 31 0 31 83 -3 c80 -3 82 -4 82 -28z m885 0 l0 -30 -80 0 c-83 0
-100 9 -86 45 4 12 24 15 86 15 l80 0 0 -30z m-1135 -6 c0 -23 -40 -27 -41 -4
-1 23 4 28 24 26 9 -2 17 -11 17 -22z m1677 -9 c-6 -33 25 -34 38 -1 11 29 23
38 44 30 21 -8 30 -40 17 -61 -9 -15 -10 -13 -11 15 0 36 -24 45 -35 13 -17
-53 -65 -49 -65 6 0 19 4 32 9 29 4 -3 6 -17 3 -31z m-1861 -55 c11 0 19 7 20
18 1 16 2 16 6 0 6 -25 43 -23 43 2 0 11 5 20 10 20 6 0 10 -13 10 -30 l0 -30
-60 0 -60 0 1 38 c2 30 3 32 6 10 3 -20 10 -28 24 -28z m434 -10 c0 -24 -2
-25 -82 -28 l-83 -3 0 31 0 31 83 -3 c80 -3 82 -4 82 -28z m885 0 l0 -30 -80
0 c-83 0 -100 9 -86 45 4 12 24 15 86 15 l80 0 0 -30z m120 -4 c0 -16 -18 -31
-27 -22 -8 8 5 36 17 36 5 0 10 -6 10 -14z m-2310 -46 c0 -18 7 -20 71 -20 44
0 68 -4 64 -10 -3 -5 -35 -10 -71 -10 -58 0 -64 -2 -64 -21 0 -12 -5 -19 -12
-17 -14 5 -23 61 -14 84 8 21 26 17 26 -6z m3375 -5 c28 -27 30 -37 15 -66
-16 -30 -30 -23 -23 12 7 36 -6 49 -53 49 -40 0 -63 -24 -46 -50 8 -13 8 -21
1 -26 -18 -11 -31 11 -27 47 5 59 88 80 133 34z m-2475 4 c0 -6 7 -8 15 -5 44
18 49 16 23 -8 -34 -31 -35 -36 -2 -36 14 0 23 -4 19 -10 -3 -5 -31 -10 -61
-10 l-54 0 0 33 c0 19 3 37 7 40 11 11 53 8 53 -4z m408 -36 c3 -22 1 -23 -82
-23 -85 0 -86 0 -86 25 0 26 0 26 83 23 76 -3 82 -5 85 -25z m882 2 c0 -25 -1
-25 -85 -25 -76 0 -85 2 -85 18 0 29 8 32 92 32 77 0 78 0 78 -25z m340 -55
l0 -60 -75 0 -75 0 0 60 0 60 75 0 75 0 0 -60z m680 0 l0 -60 -80 0 -80 0 0
60 0 60 80 0 80 0 0 -60z m-892 -3 c2 -10 -3 -17 -12 -17 -18 0 -29 16 -21 31
9 14 29 6 33 -14z m-2260 -12 c19 -14 24 -14 46 0 15 10 26 12 30 6 4 -6 -9
-21 -28 -33 -44 -29 -45 -36 -3 -40 60 -6 32 -23 -42 -26 -79 -3 -91 3 -91 46
0 24 32 62 53 62 7 0 22 -7 35 -15z m1247 -15 c0 -24 -2 -25 -82 -28 l-83 -3
0 31 0 31 83 -3 c80 -3 82 -4 82 -28z m885 0 l0 -30 -80 0 c-83 0 -100 9 -86
45 4 12 24 15 86 15 l80 0 0 -30z m-1786 4 c3 -8 2 -12 -4 -9 -6 3 -10 10 -10
16 0 14 7 11 14 -7z m2978 -21 c22 -20 23 -51 1 -75 -18 -20 -91 -25 -124 -8
-22 12 -27 68 -7 88 18 18 108 15 130 -5z m-2069 -66 c18 -4 17 -5 -5 -6 -24
-1 -28 3 -27 27 1 22 2 23 6 5 2 -13 13 -24 26 -26z m737 13 c0 -15 -6 -20
-27 -19 -17 1 -21 3 -10 6 9 2 17 11 17 19 0 8 5 14 10 14 6 0 10 -9 10 -20z
m740 -40 l279 0 4 23 c4 19 4 18 6 -5 l1 -28 -290 0 -290 0 1 33 c2 30 2 30 6
5 l4 -28 279 0z m-1390 -40 l0 -80 -30 0 -30 0 0 80 0 80 30 0 30 0 0 -80z
m80 0 c0 -79 0 -80 -25 -80 -25 0 -25 1 -25 80 0 79 0 80 25 80 25 0 25 -1 25
-80z m90 0 l0 -80 -30 0 -30 0 0 80 0 80 30 0 30 0 0 -80z m80 0 l0 -80 -30 0
-30 0 0 80 0 80 30 0 30 0 0 -80z m80 60 c0 -14 -7 -20 -22 -21 l-23 -2 23 -4
c20 -4 22 -10 22 -59 0 -51 -1 -54 -25 -54 -25 0 -25 1 -25 80 0 79 0 80 25
80 18 0 25 -5 25 -20z m90 -60 l0 -80 -30 0 -30 0 0 80 0 80 30 0 30 0 0 -80z
m80 0 l0 -80 -30 0 -30 0 0 80 0 80 30 0 30 0 0 -80z m80 60 c0 -14 -7 -20
-22 -21 l-23 -2 23 -4 c20 -4 22 -10 22 -59 0 -51 -1 -54 -25 -54 -25 0 -25 1
-25 80 0 79 0 80 25 80 18 0 25 -5 25 -20z m-925 -10 c4 -6 4 -18 1 -27 -5
-11 -10 -13 -20 -4 -7 6 -15 8 -19 5 -4 -5 -3 16 2 34 2 7 31 1 36 -8z m-928
-36 c15 -24 15 -29 2 -53 -13 -23 -20 -26 -74 -26 -54 0 -61 3 -74 26 -13 24
-13 29 2 53 15 23 24 26 72 26 48 0 57 -3 72 -26z m2087 1 c-4 -8 -11 -15 -18
-15 -6 0 -4 -5 4 -11 13 -9 13 -10 0 -6 -8 2 -16 13 -18 25 -3 17 2 22 17 22
14 0 19 -5 15 -15z m1181 -20 c0 -5 -15 -16 -32 -24 -18 -8 -33 -17 -33 -21 0
-3 16 -14 36 -23 19 -10 32 -22 29 -27 -3 -6 -40 -10 -81 -10 -59 0 -74 3 -74
15 0 11 11 15 37 15 35 0 36 1 17 15 -19 15 -19 15 0 30 19 14 18 15 -17 15
-27 0 -37 4 -37 15 0 13 13 15 78 13 43 -2 77 -7 77 -13z m-1047 -50 c-8 -18
-14 -22 -19 -13 -4 7 -3 18 3 25 18 22 28 14 16 -12z m542 -76 c0 -43 3 -50
18 -47 13 2 18 15 20 56 4 62 22 61 22 -2 0 -49 -17 -69 -52 -64 -21 3 -23 9
-26 61 -2 39 0 57 7 52 6 -3 11 -29 11 -56z m147 54 c15 -6 13 -8 -11 -13 -38
-7 -45 -27 -12 -36 26 -6 42 -35 31 -54 -8 -12 -65 -13 -65 -1 0 4 11 6 25 3
33 -6 34 25 1 37 -30 12 -39 36 -20 56 17 17 25 18 51 8z m95 -5 c12 -9 16
-27 15 -58 -2 -43 -3 -45 -34 -48 l-33 -3 0 60 c0 52 3 61 18 61 10 0 25 -6
34 -12z m-3074 -30 c7 -7 12 -25 12 -40 0 -26 3 -28 37 -28 26 0 34 -3 27 -10
-6 -6 -43 -10 -85 -8 -69 3 -74 5 -77 26 -8 51 53 93 86 60z m3342 -46 c0 -4
-19 -17 -41 -28 l-41 -20 41 -18 c22 -11 41 -23 41 -28 0 -4 -36 -8 -80 -8
-47 0 -80 4 -80 10 0 6 19 10 43 11 37 0 40 2 20 11 -13 6 -23 16 -23 23 0 7
10 17 23 23 20 9 17 11 -20 11 -24 1 -43 6 -43 11 0 6 33 10 80 10 44 0 80 -4
80 -8z m-2790 -75 c0 -1 -28 -29 -62 -62 l-63 -60 60 63 c55 58 65 67 65 59z
m85 -67 l29 -30 -59 -60 c-33 -33 -64 -60 -69 -60 -16 0 -56 42 -56 59 0 17
99 121 115 121 6 0 24 -14 40 -30z m2036 -17 c32 -27 59 -55 59 -63 0 -8 -12
-28 -26 -43 -25 -27 -26 -27 -47 -10 -85 68 -107 87 -107 95 0 14 43 68 53 68
5 0 36 -21 68 -47z m-773 11 c21 -15 25 -15 41 0 33 30 81 20 134 -29 26 -24
47 -51 47 -58 0 -8 11 -27 25 -43 15 -18 25 -41 25 -60 0 -18 6 -43 13 -58 9
-16 13 -53 11 -98 -2 -66 -7 -89 -35 -166 -5 -12 -21 -28 -36 -34 -16 -7 -41
-23 -56 -35 -38 -30 -88 -30 -123 0 -26 23 -28 23 -45 6 -37 -37 -102 -36
-139 1 -11 11 -26 20 -33 20 -22 0 -55 42 -71 90 -28 83 -8 290 32 333 12 13
22 30 22 38 0 9 23 36 50 62 55 52 96 61 138 31z m-618 -14 c0 -5 -16 -10 -35
-10 -19 0 -35 5 -35 10 0 6 16 10 35 10 19 0 35 -4 35 -10z m-1150 -32 c0 -6
-6 -5 -15 2 -8 7 -15 14 -15 16 0 2 7 1 15 -2 8 -4 15 -11 15 -16z m1170 2 c0
-5 -8 -11 -17 -11 -17 -1 -17 -2 0 -6 10 -3 16 -10 14 -16 -2 -7 4 -23 14 -36
11 -13 19 -30 19 -38 0 -7 14 -40 31 -73 56 -107 36 -194 -54 -239 -45 -22
-52 -23 -103 -12 -30 7 -54 17 -54 22 0 6 -6 7 -12 3 -7 -4 -10 -4 -6 0 3 4
-5 24 -18 43 -32 48 -31 96 5 169 16 32 34 74 40 93 6 18 19 40 28 47 15 11
15 13 3 14 -12 0 -10 4 4 15 18 14 18 15 2 15 -9 0 -14 5 -11 10 3 6 31 10 61
10 30 0 54 -4 54 -10z m276 -59 c-7 -11 -46 -21 -46 -12 0 13 13 21 32 21 11
0 17 -4 14 -9z m-492 -50 c24 -25 34 -41 27 -46 -12 -7 -81 56 -81 74 0 20 15
12 54 -28z m370 32 c7 -7 -62 -83 -76 -83 -17 0 -6 26 24 57 33 34 40 38 52
26z m-751 -37 c3 -8 -1 -20 -9 -27 -12 -10 -18 -9 -31 3 -8 9 -12 21 -9 27 10
16 43 14 49 -3z m1857 -16 c0 -27 -19 -35 -38 -17 -12 13 -13 19 -3 31 16 19
41 10 41 -14z m-1703 -42 c13 -12 23 -26 23 -33 0 -6 -27 -37 -60 -70 l-60
-59 -32 32 -32 32 59 60 c33 33 64 60 69 60 5 0 20 -10 33 -22z m2031 8 c-7
-8 -15 -12 -17 -11 -5 6 10 25 20 25 5 0 4 -6 -3 -14z m-413 -59 l59 -54 -24
-31 c-14 -17 -32 -31 -40 -31 -8 0 -42 24 -74 53 l-59 53 23 31 c13 18 31 32
39 32 9 0 43 -24 76 -53z m-1417 -59 c-3 -8 -26 -14 -56 -16 -42 -2 -52 0 -52
12 0 13 12 16 56 16 40 0 55 -4 52 -12z m477 -3 c0 -11 -79 -19 -102 -11 -8 3
-11 11 -8 16 8 14 110 9 110 -5z m843 -46 c34 -29 60 -54 58 -57 -3 -3 -31 17
-63 43 -82 68 -78 65 -67 65 5 0 37 -23 72 -51z m-1603 -39 c8 -13 -5 -13 -25
0 -13 8 -13 10 2 10 9 0 20 -4 23 -10z m-390 -50 c3 -5 1 -10 -4 -10 -6 0 -11
5 -11 10 0 6 2 10 4 10 3 0 8 -4 11 -10z m729 3 c7 -7 -62 -83 -76 -83 -17 0
-6 26 24 57 33 34 40 38 52 26z m310 -32 c22 -22 33 -41 28 -45 -13 -8 -82 51
-82 70 0 23 14 16 54 -25z m-166 -76 c-4 -70 -28 -72 -28 -2 0 29 3 57 7 61
14 14 24 -13 21 -59z m-370 -307 c2 -65 0 -78 -13 -78 -12 0 -15 13 -15 65 l0
65 -30 0 c-29 0 -38 9 -23 24 4 4 23 6 43 4 l35 -3 3 -77z m74 42 c11 0 28 10
39 23 18 21 18 22 19 1 0 -33 -41 -144 -54 -144 -15 0 -60 136 -50 152 5 8 11
5 17 -10 6 -12 19 -22 29 -22z m128 -36 c0 -57 2 -64 20 -64 11 0 20 -4 20
-10 0 -5 -25 -10 -56 -10 -34 0 -53 4 -49 10 3 6 13 10 21 10 11 0 14 15 14
63 0 35 3 67 6 70 16 15 24 -9 24 -69z m80 -10 c0 -43 -4 -74 -10 -74 -6 0
-10 34 -10 81 0 51 4 78 10 74 6 -3 10 -40 10 -81z m128 58 c18 -23 15 -92 -5
-114 -19 -21 -88 -26 -80 -5 2 6 10 11 17 9 24 -5 48 9 54 33 9 34 -9 75 -34
75 -25 0 -26 -18 -2 -36 16 -12 16 -13 0 -19 -30 -12 -48 2 -48 35 0 22 6 33
23 40 27 11 58 3 75 -18z m72 -58 c0 -43 -4 -74 -10 -74 -6 0 -10 34 -10 81 0
51 4 78 10 74 6 -3 10 -40 10 -81z m138 4 l3 -78 -41 0 c-37 0 -42 3 -55 34
-28 65 7 130 65 124 24 -3 25 -6 28 -80z m172 51 c0 -14 7 -19 30 -19 18 0 30
-5 30 -13 0 -26 -32 -107 -42 -107 -10 0 -8 23 8 78 5 16 2 22 -10 22 -10 0
-16 -9 -16 -25 0 -26 -14 -33 -26 -14 -9 15 -9 83 0 98 10 16 26 4 26 -20z
m260 -109 c11 0 20 -4 20 -10 0 -5 -22 -10 -50 -10 -27 0 -50 5 -50 10 0 6 9
10 20 10 18 0 20 7 20 63 0 88 14 94 18 8 3 -63 5 -71 22 -71z m112 100 c6 62
23 32 26 -45 l3 -76 -48 3 c-44 3 -48 5 -51 31 -2 16 3 36 11 45 14 15 14 20
1 36 -30 41 -13 50 21 11 l33 -39 4 34z m158 13 c17 -22 21 -37 17 -66 -7 -50
-23 -67 -63 -67 -40 0 -54 21 -54 79 0 74 59 106 100 54z m140 -53 l0 -80 -39
0 c-49 0 -68 21 -55 58 7 21 17 28 42 30 28 3 32 7 32 31 0 24 7 41 17 41 2 0
3 -36 3 -80z"/>
<path d="M1820 4185 c0 -22 4 -26 23 -23 14 2 22 10 22 23 0 13 -8 21 -22 23
-19 3 -23 -1 -23 -23z"/>
<path d="M1962 4198 c-13 -13 -16 -56 -6 -82 9 -25 43 -19 56 9 22 48 -17 106
-50 73z"/>
<path d="M2100 4185 c0 -22 4 -26 23 -23 14 2 22 10 22 23 0 13 -8 21 -22 23
-19 3 -23 -1 -23 -23z"/>
<path d="M2677 4160 c-3 -12 0 -20 8 -20 8 0 11 8 8 20 -3 11 -7 20 -8 20 -1
0 -5 -9 -8 -20z"/>
<path d="M2660 4101 c0 -5 13 -11 29 -13 21 -3 28 -1 24 9 -6 14 -53 18 -53 4z"/>
<path d="M2936 4161 c-4 -7 -5 -15 -2 -18 9 -9 19 4 14 18 -4 11 -6 11 -12 0z"/>
<path d="M3162 4201 c-9 -5 -12 -24 -10 -52 3 -39 6 -44 28 -44 22 0 25 5 28
44 3 39 -7 61 -28 61 -3 0 -11 -4 -18 -9z"/>
<path d="M2455 3860 c4 -6 63 -10 146 -10 86 0 139 4 139 10 0 6 -55 10 -146
10 -94 0 -143 -4 -139 -10z"/>
<path d="M2420 3715 l0 -85 35 0 35 0 0 85 0 85 -35 0 -35 0 0 -85z m50 50 c0
-8 -7 -15 -15 -15 -8 0 -15 7 -15 15 0 8 7 15 15 15 8 0 15 -7 15 -15z"/>
<path d="M2706 3763 c-3 -21 -6 -59 -6 -85 0 -48 0 -48 33 -48 32 0 34 2 45
51 7 28 12 66 12 85 0 33 -1 34 -39 34 -37 0 -39 -2 -45 -37z m64 12 c0 -8 -7
-15 -15 -15 -8 0 -15 7 -15 15 0 8 7 15 15 15 8 0 15 -7 15 -15z"/>
<path d="M2170 3786 c0 -16 7 -27 20 -31 33 -10 60 4 60 31 0 21 -4 24 -40 24
-36 0 -40 -3 -40 -24z"/>
<path d="M3180 3280 c0 -29 2 -31 33 -28 27 2 32 7 32 28 0 21 -5 26 -32 28
-31 3 -33 1 -33 -28z"/>
<path d="M4262 3233 c2 -17 9 -28 18 -28 9 0 16 11 18 28 3 22 -1 27 -18 27
-17 0 -21 -5 -18 -27z"/>
<path d="M3907 3184 c-10 -10 -9 -42 2 -48 18 -11 42 6 39 28 -3 21 -28 33
-41 20z"/>
<path d="M4205 3116 c-38 -28 13 -66 70 -52 18 5 25 13 25 30 0 36 -57 50 -95
22z"/>
<path d="M1360 2900 c0 -6 32 -10 75 -10 43 0 75 4 75 10 0 6 -32 10 -75 10
-43 0 -75 -4 -75 -10z"/>
<path d="M1570 2900 c0 -6 30 -10 75 -10 l75 0 0 -300 0 -299 -77 -4 -78 -3
87 -2 88 -2 -3 313 -2 312 -82 3 c-53 2 -83 -1 -83 -8z"/>
<path d="M1400 2593 l0 -223 140 0 140 0 0 223 -1 222 -19 -24 c-18 -21 -20
-39 -20 -197 l0 -174 -105 0 -105 0 0 173 c-1 130 -4 178 -15 197 -13 22 -14
0 -15 -197z"/>
<path d="M1460 2595 l0 -135 70 0 70 0 0 135 0 135 -70 0 -70 0 0 -135z m120
0 l0 -125 -55 0 -55 0 0 125 0 125 55 0 55 0 0 -125z"/>
<path d="M1398 2283 c23 -2 59 -2 80 0 20 2 1 4 -43 4 -44 0 -61 -2 -37 -4z"/>
<path d="M4260 2955 c0 -18 5 -25 20 -25 15 0 20 7 20 25 0 18 -5 25 -20 25
-15 0 -20 -7 -20 -25z"/>
<path d="M930 2846 c0 -21 5 -26 26 -26 21 0 25 4 22 23 -2 14 -11 23 -25 25
-19 3 -23 -1 -23 -22z"/>
<path d="M1787 2403 c-14 -13 -6 -33 13 -33 13 0 20 7 20 20 0 19 -20 27 -33
13z"/>
<path d="M937 2294 c-4 -4 -7 -16 -7 -26 0 -13 7 -18 26 -18 21 0 25 4 22 22
-3 23 -27 35 -41 22z"/>
<path d="M4200 2265 c-28 -34 27 -68 76 -46 27 12 32 46 8 55 -28 11 -71 6
-84 -9z"/>
<path d="M2288 2183 c6 -2 18 -2 25 0 6 3 1 5 -13 5 -14 0 -19 -2 -12 -5z"/>
<path d="M2378 2183 c7 -3 16 -2 19 1 4 3 -2 6 -13 5 -11 0 -14 -3 -6 -6z"/>
<path d="M2458 2183 c6 -2 18 -2 25 0 6 3 1 5 -13 5 -14 0 -19 -2 -12 -5z"/>
<path d="M2538 2183 c6 -2 18 -2 25 0 6 3 1 5 -13 5 -14 0 -19 -2 -12 -5z"/>
<path d="M2708 2183 c6 -2 18 -2 25 0 6 3 1 5 -13 5 -14 0 -19 -2 -12 -5z"/>
<path d="M2788 2183 c6 -2 18 -2 25 0 6 3 1 5 -13 5 -14 0 -19 -2 -12 -5z"/>
<path d="M948 2159 c-24 -13 -23 -36 2 -49 50 -27 117 15 76 46 -23 16 -54 18
-78 3z"/>
<path d="M4020 2045 c0 -8 9 -15 20 -15 11 0 20 7 20 15 0 8 -9 15 -20 15 -11
0 -20 -7 -20 -15z"/>
<path d="M4020 1990 c0 -16 5 -21 23 -18 12 2 22 10 22 18 0 8 -10 16 -22 18
-18 3 -23 -2 -23 -18z"/>
<path d="M943 2023 c-7 -3 -13 -16 -13 -29 0 -19 5 -24 25 -24 18 0 25 5 25
19 0 22 -20 40 -37 34z"/>
<path d="M2805 1826 c-18 -13 -18 -14 3 -25 35 -19 26 -32 -16 -25 -28 4 -41
2 -51 -10 -8 -9 -12 -17 -10 -19 2 -1 17 -9 34 -17 37 -19 61 -60 50 -86 -7
-17 -8 -17 -19 7 -17 40 -36 59 -61 59 -31 0 -57 -33 -54 -67 2 -15 -5 -40
-15 -56 -16 -23 -17 -32 -6 -56 7 -18 24 -34 42 -40 40 -14 26 -33 -18 -25
-38 7 -45 -8 -19 -42 8 -10 15 -31 15 -46 0 -31 23 -58 49 -58 10 0 28 -11 41
-25 59 -63 151 8 110 85 -5 10 -23 23 -40 28 -35 13 -41 37 -7 29 12 -2 30 -8
40 -12 16 -7 17 2 17 108 0 97 -3 118 -16 125 -9 5 -14 15 -10 21 4 6 12 9 17
6 14 -9 11 109 -3 127 -19 24 -51 30 -73 14z m55 -76 c0 -5 -7 -10 -15 -10 -8
0 -15 5 -15 10 0 6 7 10 15 10 8 0 15 -4 15 -10z m-106 -115 c9 -35 48 -52 81
-37 33 15 35 15 35 -3 0 -8 -5 -15 -10 -15 -6 0 -22 -11 -36 -25 -30 -30 -59
-46 -68 -38 -11 12 -6 22 14 28 23 7 27 25 7 25 -19 0 -44 30 -52 63 -6 20 -4
27 8 27 8 0 18 -11 21 -25z m87 -160 c0 -5 -9 -11 -20 -13 -11 -2 -31 -15 -45
-29 -28 -28 -41 -26 -32 5 11 33 97 66 97 37z m-62 -100 c30 -15 41 -33 41
-66 0 -29 -20 -23 -31 10 -7 19 -21 33 -40 40 -31 11 -40 31 -14 31 9 0 29 -7
44 -15z"/>
<path d="M2945 1815 c-21 -20 -25 -34 -25 -81 0 -45 3 -55 15 -51 23 9 28 -11
5 -23 -18 -10 -20 -20 -20 -130 l0 -119 28 16 c16 9 36 13 46 10 21 -8 12 -27
-14 -27 -22 0 -60 -45 -60 -70 0 -10 9 -29 21 -44 27 -34 69 -34 105 -1 15 14
35 25 44 25 22 0 40 22 44 52 1 13 8 33 14 45 23 42 16 56 -23 49 -27 -5 -35
-4 -35 7 0 8 11 18 25 21 40 10 53 50 31 91 -10 18 -15 41 -12 52 8 27 -29 73
-58 73 -25 0 -52 -25 -57 -53 -5 -24 -23 -23 -27 3 -4 25 49 80 78 80 18 0 19
3 9 21 -9 19 -17 21 -55 15 -47 -6 -58 6 -22 25 21 11 21 12 3 25 -26 19 -32
18 -60 -11z m35 -65 c0 -5 -7 -10 -16 -10 -8 0 -12 5 -9 10 3 6 10 10 16 10 5
0 9 -4 9 -10z m110 -111 c0 -11 -14 -35 -31 -52 -28 -27 -29 -32 -15 -42 15
-12 22 -35 10 -35 -21 0 -118 82 -108 92 3 3 19 1 35 -5 35 -14 58 -3 77 36
16 32 32 35 32 6z m-65 -163 c33 -14 60 -47 48 -59 -3 -4 -19 5 -35 18 -16 14
-38 25 -49 25 -10 0 -19 7 -19 15 0 19 11 19 55 1z m65 -95 c0 -6 -12 -16 -27
-23 -15 -7 -34 -26 -41 -41 -16 -32 -32 -35 -32 -6 0 27 52 79 79 79 12 0 21
-4 21 -9z"/>
<path d="M2193 1713 c-7 -2 -13 -13 -13 -23 0 -10 -13 -43 -29 -73 -40 -76
-46 -109 -27 -149 21 -43 63 -68 116 -68 34 0 48 6 76 34 45 45 47 99 4 171
-16 28 -30 59 -30 71 0 11 -5 25 -12 32 -12 12 -62 15 -85 5z m106 -137 c-2
-2 -15 1 -29 6 -20 7 -22 11 -10 18 10 6 20 4 29 -5 8 -8 13 -16 10 -19z"/>
<path d="M1947 960 c3 -11 7 -20 8 -20 1 0 5 9 8 20 3 12 0 20 -8 20 -8 0 -11
-8 -8 -20z"/>
<path d="M2432 1008 c-27 -27 -9 -98 25 -98 9 0 13 17 13 55 0 56 -12 69 -38
43z"/>
<path d="M2994 945 c-8 -20 4 -35 27 -35 14 0 19 7 19 25 0 18 -5 25 -20 25
-11 0 -23 -7 -26 -15z"/>
<path d="M3134 1007 c-3 -8 -4 -32 -2 -53 3 -34 6 -39 28 -39 23 0 25 3 25 50
0 44 -3 50 -23 53 -13 2 -24 -3 -28 -11z"/>
<path d="M3274 945 c-8 -20 4 -35 27 -35 14 0 19 7 19 25 0 18 -5 25 -20 25
-11 0 -23 -7 -26 -15z"/>
<path d="M4199 1376 c16 -19 -20 -51 -37 -34 -15 15 -16 3 -2 -23 13 -23 52
-25 70 -4 17 20 5 61 -20 68 -16 4 -19 2 -11 -7z"/>
<path d="M4496 1253 c7 -38 -8 -63 -40 -63 -21 -1 -21 -1 -2 -15 26 -20 49
-19 69 3 23 26 21 46 -8 79 l-25 28 6 -32z"/>
<path d="M4430 1225 c13 -14 26 -25 28 -25 3 0 -5 11 -18 25 -13 14 -26 25
-28 25 -3 0 5 -11 18 -25z"/>
<path d="M3839 1017 c8 -11 6 -18 -8 -31 -11 -10 -25 -15 -31 -11 -9 6 -9 2
-1 -14 13 -24 53 -28 71 -7 18 22 8 58 -19 68 -19 7 -22 6 -12 -5z"/>
<path d="M3897 733 c-13 -12 -7 -31 19 -62 29 -35 63 -40 87 -13 21 23 21 42
2 68 -14 18 -14 18 -15 -4 0 -35 -27 -38 -59 -8 -15 14 -30 23 -34 19z"/>
</g>
</svg>
